<svg xmlns="http://www.w3.org/2000/svg" width="28" height="28" viewBox="-1 -1 26 26"><path d="M8 12V5.2" fill="none" stroke="#1e2340" stroke-width="6" stroke-linecap="round" stroke-linejoin="round"/><path d="M12 11V3.6" fill="none" stroke="#1e2340" stroke-width="6" stroke-linecap="round" stroke-linejoin="round"/><path d="M16 11V5.2" fill="none" stroke="#1e2340" stroke-width="6" stroke-linecap="round" stroke-linejoin="round"/><path d="M20 12.5V7.6" fill="none" stroke="#1e2340" stroke-width="6" stroke-linecap="round" stroke-linejoin="round"/><path d="M7.2 16.4L4.2 13.2" fill="none" stroke="#1e2340" stroke-width="6" stroke-linecap="round" stroke-linejoin="round"/><path d="M6 10.5H22V14A8 8 0 0 1 14 22H12C9.2 22 7.5 21 6 19.5Z" fill="#1e2340" stroke="#1e2340" stroke-width="2.2" stroke-linejoin="round"/><path d="M6 10.5H22V14A8 8 0 0 1 14 22H12C9.2 22 7.5 21 6 19.5Z" fill="#f5b342"/><path d="M8 12V5.2" fill="none" stroke="#f5b342" stroke-width="3.8" stroke-linecap="round" stroke-linejoin="round"/><path d="M12 11V3.6" fill="none" stroke="#f5b342" stroke-width="3.8" stroke-linecap="round" stroke-linejoin="round"/><path d="M16 11V5.2" fill="none" stroke="#f5b342" stroke-width="3.8" stroke-linecap="round" stroke-linejoin="round"/><path d="M20 12.5V7.6" fill="none" stroke="#f5b342" stroke-width="3.8" stroke-linecap="round" stroke-linejoin="round"/><path d="M7.2 16.4L4.2 13.2" fill="none" stroke="#f5b342" stroke-width="3.8" stroke-linecap="round" stroke-linejoin="round"/></svg>
