<svg xmlns="http://www.w3.org/2000/svg" width="28" height="28" viewBox="-1 -1 26 26"><path d="M17 22h-1a4 4 0 0 1-4-4V6a4 4 0 0 1 4-4h1" fill="none" stroke="#1e2340" stroke-width="4.6" stroke-linecap="round" stroke-linejoin="round"/><path d="M7 22h1a4 4 0 0 0 4-4v-1" fill="none" stroke="#1e2340" stroke-width="4.6" stroke-linecap="round" stroke-linejoin="round"/><path d="M7 2h1a4 4 0 0 1 4 4v1" fill="none" stroke="#1e2340" stroke-width="4.6" stroke-linecap="round" stroke-linejoin="round"/><path d="M17 22h-1a4 4 0 0 1-4-4V6a4 4 0 0 1 4-4h1" fill="none" stroke="#f5b342" stroke-width="2.2" stroke-linecap="round" stroke-linejoin="round"/><path d="M7 22h1a4 4 0 0 0 4-4v-1" fill="none" stroke="#f5b342" stroke-width="2.2" stroke-linecap="round" stroke-linejoin="round"/><path d="M7 2h1a4 4 0 0 1 4 4v1" fill="none" stroke="#f5b342" stroke-width="2.2" stroke-linecap="round" stroke-linejoin="round"/></svg>
